<svg width="26" height="23" viewBox="0 0 26 23" fill="none" xmlns="http://www.w3.org/2000/svg">
<path d="M25.1079 12.3053C25.3057 11.088 25.1408 9.91278 24.6924 8.82654C23.2019 5.21667 18.526 2.56193 12.9796 2.51511V0.15535C12.9796 0.0242523 12.7488 -0.0459787 12.5971 0.0336165L5.75806 3.60135C5.64594 3.66222 5.64594 3.78395 5.75806 3.84014L12.5905 7.40787C12.7488 7.48747 12.973 7.41724 12.973 7.28614V4.93106C16.6201 4.9732 19.7329 6.56978 21.0717 8.82654C21.5795 9.67868 21.8367 10.6198 21.7642 11.6077C21.6653 12.9655 20.9464 14.2156 19.8121 15.2269C19.2053 15.7654 19.3504 16.552 20.1352 16.9593C20.8804 17.3479 21.9225 17.2402 22.4962 16.7252C23.901 15.4798 24.8375 13.9628 25.1079 12.3053ZM5.36236 7.77307C4.22142 8.77972 3.50256 10.0345 3.41023 11.3923C3.33769 12.3849 3.60149 13.326 4.10271 14.1735C5.4415 16.4302 8.55435 18.0315 12.2014 18.0689V15.7139C12.2014 15.5828 12.4322 15.5125 12.5839 15.5921L19.4229 19.1599C19.5351 19.2207 19.5351 19.3425 19.4229 19.3986L12.5905 22.9664C12.4322 23.046 12.208 22.9757 12.208 22.8447V20.4849C6.66158 20.4427 1.97911 17.788 0.495234 14.1735C0.046772 13.0872 -0.111509 11.912 0.0797462 10.6947C0.343548 9.03723 1.28004 7.52024 2.68478 6.27481C3.26514 5.75979 4.30056 5.6521 5.0458 6.04071C5.82401 6.44805 5.9691 7.23464 5.36236 7.77307Z" fill="white"/>
</svg>
