<svg width="30" height="30" viewBox="0 0 30 30" fill="none" xmlns="http://www.w3.org/2000/svg">
<path d="M27.7257 18.1667C27.6559 18.2048 27.5763 18.2214 27.497 18.2143C27.4178 18.2072 27.3424 18.1768 27.2804 18.1269C27.2184 18.077 27.1726 18.0098 27.1488 17.9339C27.125 17.858 27.1242 17.7767 27.1466 17.7003C27.3158 17.122 27.4435 16.5323 27.5286 15.9358C27.5426 15.8401 27.5905 15.7526 27.6635 15.6892C27.7365 15.6258 27.8298 15.5906 27.9265 15.5901C27.9456 15.5901 27.9647 15.5915 27.9837 15.5941C28.0893 15.6093 28.1846 15.6658 28.2486 15.7511C28.3126 15.8364 28.3402 15.9437 28.3253 16.0493C28.2348 16.684 28.0989 17.3115 27.9188 17.9268C27.9041 17.9776 27.8794 18.0249 27.8463 18.0661C27.8131 18.1073 27.7722 18.1415 27.7257 18.1667Z" fill="#1A16BF"/>
<path d="M25.4223 22.0116C25.3824 21.9832 25.3485 21.9472 25.3225 21.9056C25.2966 21.8641 25.279 21.8178 25.2709 21.7695C25.2628 21.7212 25.2643 21.6717 25.2754 21.624C25.2864 21.5763 25.3067 21.5312 25.3351 21.4913C25.6857 20.9996 26.0008 20.4835 26.278 19.9471C26.3234 19.8591 26.4019 19.7929 26.4962 19.7628C26.5904 19.7327 26.6928 19.7413 26.7807 19.7867C26.8686 19.8321 26.9349 19.9106 26.965 20.0049C26.995 20.0992 26.9864 20.2015 26.941 20.2894C26.6475 20.8574 26.3138 21.4037 25.9426 21.9242C25.9142 21.9641 25.8782 21.9981 25.8367 22.0241C25.7952 22.0501 25.7489 22.0677 25.7006 22.0758C25.6522 22.0839 25.6028 22.0824 25.555 22.0714C25.5073 22.0604 25.4622 22.0401 25.4223 22.0116Z" fill="#1A16BF"/>
<path d="M20.7656 18.0619C20.5584 17.9142 20.4101 17.698 20.3469 17.4515L20.1571 16.7099C20.1052 16.5071 20.1135 16.2935 20.1811 16.0953C20.2486 15.8971 20.3724 15.7229 20.5374 15.594C20.8021 15.3859 21.0027 15.1073 21.1161 14.7902C21.2295 14.4732 21.2511 14.1305 21.1784 13.8018L20.7948 12.0908C20.7205 11.7586 20.5523 11.4548 20.3104 11.2154L19.9759 10.8841C19.8604 10.7703 19.7723 10.6318 19.7181 10.479C19.6639 10.3262 19.6451 10.1631 19.6631 10.002L19.8672 8.13194C21.3768 9.35309 22.3708 11.0983 22.6509 13.0197C22.9311 14.9411 22.4769 16.8975 21.3789 18.4989L20.7656 18.0619Z" fill="#1A16BF"/>
<path d="M19.8158 11.7148C19.9622 11.8596 20.0639 12.0435 20.1088 12.2445L20.4924 13.9554C20.5364 14.1543 20.5233 14.3616 20.4547 14.5535C20.3861 14.7453 20.2648 14.9139 20.1046 15.0398C19.8319 15.2529 19.6273 15.5408 19.5157 15.8683C19.404 16.1958 19.3903 16.5488 19.476 16.884L19.6659 17.6256C19.7703 18.033 20.0154 18.3903 20.3579 18.6345L20.9555 19.0601C20.2757 19.8838 19.4324 20.5575 18.4789 21.0386C17.5254 21.5198 16.4825 21.7979 15.416 21.8555L15.7563 19.7866C15.7945 19.5533 15.7643 19.314 15.6692 19.0975C15.5741 18.8811 15.4182 18.697 15.2205 18.5674L13.8628 17.6783C13.7769 17.6223 13.7096 17.542 13.6696 17.4476C13.6296 17.3532 13.6186 17.249 13.638 17.1483L13.8206 16.1925C13.8359 16.1131 13.8695 16.0384 13.9188 15.9744C13.968 15.9103 14.0316 15.8586 14.1043 15.8234L15.0583 15.364C15.2983 15.2478 15.4939 15.0564 15.6151 14.8188C15.7364 14.5813 15.7767 14.3106 15.73 14.048L15.3824 12.1177C15.3486 11.9311 15.272 11.7548 15.1586 11.6029C15.0459 11.4507 14.8991 11.3271 14.7299 11.2421C14.5608 11.157 14.374 11.1129 14.1847 11.1132C14.1413 11.1132 14.098 11.1154 14.0549 11.1199C13.8446 11.1408 13.6434 11.2164 13.4714 11.3391C13.2993 11.4619 13.1624 11.6275 13.0743 11.8196L12.7246 12.5721C12.6829 12.6614 12.6166 12.737 12.5335 12.79C12.4504 12.8431 12.3539 12.8713 12.2554 12.8715H10.8415C10.7351 12.8717 10.6312 12.839 10.5442 12.7778L9.59355 12.1102C9.45229 12.0111 9.29163 11.943 9.12216 11.9105C8.95269 11.878 8.77826 11.8818 8.61035 11.9216L7.51828 12.1809C8.38605 8.86031 11.4113 6.40266 15 6.40266C16.4959 6.40096 17.9598 6.83582 19.2122 7.65393L18.9643 9.92543C18.9346 10.1917 18.9657 10.4613 19.0552 10.7139C19.1447 10.9665 19.2904 11.1954 19.4813 11.3835L19.8158 11.7148Z" fill="#1A16BF"/>
<path d="M9.18956 12.6856L10.1402 13.3528C10.3455 13.4974 10.5905 13.5748 10.8415 13.5744H12.2553C12.4878 13.5739 12.7154 13.5072 12.9114 13.3821C13.1074 13.2571 13.2638 13.0788 13.3622 12.8681L13.7119 12.1156C13.7496 12.0344 13.8077 11.9644 13.8806 11.9124C13.9535 11.8604 14.0386 11.8282 14.1276 11.819C14.2166 11.8097 14.3066 11.8237 14.3886 11.8596C14.4706 11.8955 14.5419 11.9521 14.5955 12.0238C14.6436 12.0882 14.6761 12.1629 14.6904 12.242L15.038 14.1724C15.0578 14.2837 15.0407 14.3984 14.9893 14.4991C14.9379 14.5998 14.855 14.681 14.7532 14.7303L13.7992 15.1896C13.6276 15.2727 13.4777 15.3947 13.3615 15.5459C13.2453 15.6971 13.166 15.8733 13.1299 16.0606L12.9473 17.0163C12.9015 17.2538 12.9274 17.4996 13.0218 17.7222C13.1162 17.9449 13.2749 18.1344 13.4775 18.2664L14.8353 19.1555C14.9191 19.2105 14.9852 19.2886 15.0255 19.3803C15.0658 19.4721 15.0786 19.5736 15.0624 19.6725L14.7026 21.8604C10.5765 21.7035 7.26797 18.2985 7.26797 14.1347C7.26792 13.7351 7.29875 13.336 7.3602 12.9411L8.77278 12.6058C8.84394 12.5888 8.91789 12.5872 8.98974 12.6009C9.06159 12.6147 9.12969 12.6435 9.18956 12.6856Z" fill="#1A16BF"/>
<path d="M24.0871 20.4193C24.1787 20.4193 24.2691 20.4404 24.3512 20.4808C24.4334 20.5213 24.5052 20.5801 24.561 20.6527C24.586 20.685 24.6051 20.7213 24.6176 20.7601L25.2017 22.579L26.8176 23.6083C26.8519 23.6301 26.8822 23.6577 26.907 23.6899C26.9766 23.7801 27.0191 23.8882 27.0295 24.0016C27.0399 24.115 27.0178 24.229 26.9658 24.3304C26.9139 24.4317 26.8341 24.5161 26.7359 24.5738C26.6378 24.6315 26.5252 24.6601 26.4114 24.6562L24.5332 24.9074L23.5934 25.6331L24.8842 27.3043C24.9298 27.3633 24.9634 27.4307 24.9829 27.5027C25.0025 27.5747 25.0076 27.6499 24.9981 27.7239C24.9886 27.7979 24.9647 27.8693 24.9276 27.934C24.8905 27.9988 24.841 28.0555 24.7819 28.1011L24.3776 28.4134C24.2339 28.524 24.0564 28.5815 23.8752 28.5762C23.694 28.571 23.5201 28.5033 23.383 28.3846L21.8062 27.0135L19.3132 28.9392C19.0122 29.1708 18.6315 29.2736 18.2547 29.2248C17.878 29.1761 17.536 28.9799 17.3038 28.6793C17.0715 28.3786 16.9681 27.9981 17.0162 27.6213C17.0642 27.2445 17.2598 26.9021 17.56 26.6693L20.053 24.7438L19.125 22.8716C19.0448 22.709 19.0233 22.5237 19.0639 22.3471C19.1046 22.1704 19.2051 22.0133 19.3483 21.9022L19.7526 21.5897C19.8516 21.5128 19.9733 21.4711 20.0987 21.4711C20.1232 21.4712 20.1478 21.4727 20.1722 21.4759C20.2462 21.4852 20.3177 21.5091 20.3824 21.5462C20.4472 21.5833 20.5039 21.6329 20.5494 21.692L21.8402 23.3633L22.7801 22.6373L23.5008 20.8875C23.531 20.7546 23.6054 20.6358 23.712 20.5507C23.8185 20.4656 23.9508 20.4193 24.0871 20.4193H24.0871ZM19.8754 26.7598C19.825 26.6946 19.7565 26.6458 19.6784 26.6195C19.6003 26.5933 19.5162 26.5908 19.4367 26.6124C19.3572 26.6339 19.2859 26.6786 19.2318 26.7407C19.1776 26.8028 19.1431 26.8795 19.1326 26.9612C19.1221 27.0429 19.1361 27.1259 19.1728 27.1997C19.2094 27.2734 19.2671 27.3347 19.3386 27.3756C19.41 27.4166 19.492 27.4355 19.5742 27.4298C19.6564 27.4242 19.735 27.3943 19.8002 27.344C19.8876 27.2764 19.9445 27.1769 19.9586 27.0674C19.9727 26.9579 19.9427 26.8472 19.8754 26.7598ZM20.9033 25.9655C20.853 25.9003 20.7844 25.8515 20.7063 25.8253C20.6282 25.7991 20.5441 25.7966 20.4646 25.8182C20.3851 25.8398 20.3138 25.8844 20.2597 25.9465C20.2055 26.0086 20.1711 26.0854 20.1606 26.1671C20.1501 26.2488 20.164 26.3318 20.2007 26.4055C20.2373 26.4793 20.295 26.5406 20.3665 26.5815C20.438 26.6225 20.52 26.6414 20.6021 26.6358C20.6843 26.6301 20.763 26.6003 20.8282 26.5499C20.9157 26.4824 20.9727 26.3829 20.9868 26.2733C21.0008 26.1637 20.9708 26.053 20.9033 25.9656L20.9033 25.9655ZM21.9313 25.1715C21.8809 25.1063 21.8124 25.0575 21.7343 25.0313C21.6562 25.005 21.5721 25.0025 21.4926 25.0241C21.4131 25.0457 21.3418 25.0904 21.2876 25.1525C21.2335 25.2146 21.199 25.2913 21.1885 25.373C21.178 25.4547 21.192 25.5377 21.2286 25.6115C21.2653 25.6852 21.323 25.7465 21.3945 25.7875C21.4659 25.8284 21.5479 25.8473 21.6301 25.8417C21.7123 25.8361 21.791 25.8062 21.8562 25.7559C21.8995 25.7224 21.9358 25.6808 21.963 25.6333C21.9902 25.5858 22.0078 25.5335 22.0148 25.4792C22.0218 25.4249 22.018 25.3698 22.0036 25.317C21.9893 25.2642 21.9647 25.2148 21.9312 25.1715H21.9313ZM22.9593 24.3775C22.909 24.3123 22.8404 24.2635 22.7623 24.2373C22.6842 24.2111 22.6001 24.2086 22.5207 24.2302C22.4412 24.2518 22.3699 24.2964 22.3157 24.3585C22.2616 24.4206 22.2271 24.4974 22.2167 24.5791C22.2062 24.6608 22.2201 24.7437 22.2568 24.8175C22.2934 24.8913 22.3511 24.9525 22.4226 24.9935C22.4941 25.0344 22.5761 25.0533 22.6582 25.0476C22.7404 25.042 22.8191 25.0121 22.8843 24.9618C22.9716 24.8942 23.0285 24.7947 23.0426 24.6852C23.0567 24.5756 23.0267 24.465 22.9593 24.3775Z" fill="#1A16BF"/>
<path d="M18.079 1.78549C18.0519 1.78549 18.0248 1.78226 17.9984 1.77588C17.4099 1.63376 16.812 1.5339 16.2092 1.47706C16.1184 1.46851 16.0348 1.42425 15.9766 1.35402C15.9185 1.28379 15.8906 1.19333 15.8992 1.10256C15.9077 1.01178 15.952 0.928115 16.0222 0.869969C16.0924 0.811824 16.1829 0.783961 16.2737 0.792508C16.9091 0.852547 17.5394 0.957814 18.1599 1.10751C18.2417 1.12727 18.3134 1.17635 18.3614 1.24546C18.4095 1.31457 18.4305 1.3989 18.4205 1.48247C18.4105 1.56604 18.3702 1.64304 18.3072 1.69887C18.2443 1.75471 18.163 1.78551 18.0788 1.78543L18.079 1.78549Z" fill="#1A16BF"/>
<path d="M25.477 6.33193C25.4167 6.37973 25.342 6.40573 25.265 6.4057C25.2513 6.40569 25.2376 6.40487 25.224 6.40324C25.1791 6.39802 25.1357 6.38394 25.0963 6.36181C25.0569 6.33968 25.0223 6.30995 24.9945 6.27433C24.6196 5.79862 24.2115 5.35002 23.7733 4.93189C23.7073 4.86896 23.669 4.78239 23.6668 4.69123C23.6647 4.60007 23.6988 4.51178 23.7618 4.4458C23.8247 4.37982 23.9113 4.34154 24.0024 4.33938C24.0936 4.33723 24.1819 4.37138 24.2479 4.43432C24.7097 4.87489 25.1397 5.34763 25.5347 5.849C25.591 5.92071 25.6166 6.01185 25.6058 6.10239C25.595 6.19294 25.5487 6.27549 25.477 6.33193Z" fill="#1A16BF"/>
<path d="M28.0581 14.4785C27.9669 14.4784 27.8795 14.4422 27.8151 14.3777C27.7506 14.3133 27.7144 14.2259 27.7142 14.1347C27.7143 13.5291 27.6716 12.9243 27.5865 12.3247C27.5801 12.28 27.5826 12.2345 27.5938 12.1907C27.6051 12.147 27.6248 12.1059 27.6519 12.0698C27.679 12.0337 27.7129 12.0033 27.7518 11.9803C27.7907 11.9573 27.8337 11.9422 27.8784 11.9358C27.9685 11.9235 28.0599 11.9472 28.1327 12.0019C28.2055 12.0565 28.2538 12.1376 28.2672 12.2276C28.3569 12.8594 28.4019 13.4967 28.402 14.1347C28.4018 14.2259 28.3656 14.3133 28.3011 14.3777C28.2366 14.4422 28.1492 14.4784 28.0581 14.4785Z" fill="#1A16BF"/>
<path d="M13.7912 1.4771C13.1884 1.53402 12.5905 1.63388 12.0019 1.77593C11.958 1.78654 11.9125 1.7884 11.8679 1.7814C11.8233 1.77441 11.7805 1.7587 11.742 1.73517C11.7034 1.71164 11.6699 1.68075 11.6433 1.64427C11.6167 1.60779 11.5976 1.56642 11.587 1.52254C11.5764 1.47866 11.5745 1.43312 11.5815 1.38851C11.5885 1.34391 11.6042 1.30113 11.6277 1.2626C11.6513 1.22407 11.6822 1.19055 11.7186 1.16396C11.7551 1.13736 11.7965 1.11822 11.8404 1.10761C12.4608 0.957897 13.0912 0.852649 13.7266 0.792667C13.7716 0.788435 13.8169 0.793096 13.8601 0.806387C13.9032 0.819678 13.9433 0.841339 13.9781 0.870129C14.0129 0.89892 14.0416 0.934278 14.0627 0.974185C14.0838 1.01409 14.0969 1.05777 14.1011 1.10272C14.1054 1.14766 14.1007 1.19301 14.0874 1.23615C14.0741 1.2793 14.0525 1.3194 14.0237 1.35418C13.9949 1.38896 13.9595 1.41772 13.9196 1.43883C13.8797 1.45994 13.836 1.47299 13.7911 1.47722L13.7912 1.4771Z" fill="#1A16BF"/>
<path d="M27.4558 10.188C27.3696 10.2178 27.2752 10.2122 27.1932 10.1723C27.1111 10.1325 27.0483 10.0617 27.0185 9.97553C26.8203 9.40309 26.5813 8.8456 26.3033 8.30737C26.2615 8.22634 26.2537 8.13207 26.2813 8.04523C26.309 7.95839 26.37 7.88607 26.4509 7.84413C26.491 7.82337 26.5348 7.81073 26.5798 7.80692C26.6248 7.8031 26.6701 7.8082 26.7132 7.82192C26.7562 7.83563 26.7961 7.85769 26.8306 7.88684C26.8651 7.91599 26.8935 7.95165 26.9142 7.99179C27.2072 8.55932 27.4592 9.14711 27.6683 9.75065C27.683 9.79332 27.6893 9.83848 27.6866 9.88355C27.6839 9.92862 27.6724 9.97272 27.6526 10.0133C27.6329 10.0539 27.6054 10.0903 27.5716 10.1202C27.5378 10.1502 27.4985 10.1732 27.4558 10.188Z" fill="#1A16BF"/>
<path d="M22.0587 3.49109C21.9929 3.49111 21.9285 3.47215 21.8732 3.43648C21.3643 3.10898 20.8328 2.81822 20.2825 2.56642C20.2111 2.53377 20.1531 2.47767 20.118 2.40746C20.0829 2.33724 20.0729 2.25713 20.0896 2.18043C20.1063 2.10373 20.1488 2.03507 20.2099 1.98584C20.2711 1.93662 20.3472 1.90979 20.4257 1.90982C20.475 1.90982 20.5237 1.92051 20.5685 1.94117C21.1486 2.20659 21.709 2.51314 22.2454 2.85846C22.3079 2.89865 22.3557 2.95803 22.3816 3.02769C22.4076 3.09734 22.4102 3.17353 22.3892 3.24481C22.3681 3.3161 22.3246 3.37865 22.265 3.42308C22.2054 3.46751 22.1331 3.49144 22.0587 3.49127V3.49109Z" fill="#1A16BF"/>
<path d="M2.98137 9.97582C2.96663 10.0185 2.94362 10.0579 2.91365 10.0916C2.88368 10.1254 2.84735 10.153 2.80673 10.1727C2.76611 10.1924 2.722 10.204 2.67693 10.2066C2.63185 10.2093 2.58669 10.203 2.54403 10.1882C2.45788 10.1584 2.3871 10.0956 2.34726 10.0136C2.30741 9.93162 2.30177 9.83715 2.33156 9.751C2.54048 9.14782 2.79233 8.56038 3.0852 7.99319C3.10569 7.95271 3.134 7.91669 3.16849 7.8872C3.20297 7.85771 3.24295 7.83534 3.28612 7.82138C3.3293 7.80743 3.37481 7.80215 3.42003 7.80586C3.46525 7.80958 3.50929 7.82221 3.5496 7.84302C3.58992 7.86384 3.62572 7.89243 3.65493 7.92714C3.68414 7.96186 3.70619 8.00202 3.71981 8.0453C3.73343 8.08858 3.73835 8.13413 3.73428 8.17932C3.7302 8.22451 3.71723 8.26845 3.6961 8.3086C3.41836 8.84656 3.1795 9.40373 2.98137 9.97582Z" fill="#1A16BF"/>
<path d="M9.71761 2.56611C9.16683 2.81833 8.63474 3.1095 8.12538 3.4374C8.07015 3.47313 8.00577 3.49216 7.93999 3.49219C7.91528 3.49216 7.89065 3.48951 7.86651 3.48428C7.80012 3.46982 7.73951 3.43602 7.69231 3.38714C7.64511 3.33827 7.61345 3.27651 7.60132 3.20966C7.58919 3.1428 7.59714 3.07385 7.62415 3.01151C7.65117 2.94917 7.69605 2.89623 7.75313 2.85937C8.29008 2.51379 8.85099 2.20695 9.43161 1.94121C9.47635 1.92053 9.52505 1.90983 9.57434 1.90986C9.65274 1.90993 9.72876 1.93679 9.7898 1.98598C9.85084 2.03518 9.89324 2.10376 9.90996 2.18035C9.92668 2.25695 9.91672 2.33696 9.88174 2.40712C9.84675 2.47728 9.78884 2.53338 9.71761 2.56611Z" fill="#1A16BF"/>
<path d="M5.00486 6.27537C4.97703 6.31097 4.94241 6.34069 4.90302 6.36282C4.86362 6.38494 4.82022 6.39903 4.77534 6.40427C4.76173 6.40588 4.74804 6.40668 4.73433 6.40668C4.66982 6.40658 4.60664 6.38834 4.55201 6.35403C4.49738 6.31973 4.4535 6.27075 4.42539 6.21269C4.39728 6.15463 4.38607 6.08984 4.39303 6.02571C4.4 5.96158 4.42487 5.9007 4.4648 5.85004C4.85966 5.34877 5.2895 4.87609 5.75111 4.43552C5.81725 4.37348 5.90523 4.34008 5.99589 4.3426C6.08655 4.34512 6.17253 4.38336 6.23513 4.44898C6.29773 4.51461 6.33186 4.60231 6.3301 4.69298C6.32833 4.78365 6.29082 4.86996 6.22572 4.9331C5.7876 5.35115 5.37962 5.7997 5.00486 6.27537Z" fill="#1A16BF"/>
<path d="M2.11089 16.269C2.15524 16.2605 2.20084 16.2608 2.24507 16.2699C2.28931 16.2789 2.33132 16.2967 2.36869 16.322C2.40606 16.3474 2.43807 16.3799 2.46288 16.4176C2.48768 16.4553 2.50481 16.4976 2.51326 16.542C2.62732 17.1365 2.78386 17.7221 2.98166 18.2943C3.01037 18.3802 3.00404 18.474 2.96404 18.5552C2.92403 18.6365 2.85359 18.6986 2.76801 18.7283C2.68243 18.7579 2.58863 18.7525 2.50696 18.7134C2.4253 18.6742 2.36237 18.6045 2.33185 18.5192C2.12332 17.9158 1.95825 17.2983 1.83791 16.6714C1.82079 16.5818 1.83992 16.4892 1.89111 16.4137C1.9423 16.3383 2.02135 16.2862 2.11089 16.269Z" fill="#1A16BF"/>
<path d="M2.41348 12.325C2.32836 12.9247 2.28567 13.5296 2.28574 14.1352C2.2863 14.1808 2.27781 14.2259 2.26076 14.2682C2.24371 14.3104 2.21845 14.3488 2.18644 14.3812C2.15443 14.4135 2.1163 14.4392 2.07428 14.4568C2.03226 14.4743 1.98718 14.4833 1.94165 14.4832C1.89612 14.4832 1.85105 14.4741 1.80906 14.4565C1.76707 14.4389 1.72899 14.4132 1.69703 14.3807C1.66508 14.3483 1.63988 14.3099 1.62291 14.2676C1.60593 14.2254 1.59752 14.1802 1.59815 14.1346C1.59817 13.4967 1.64321 12.8596 1.73291 12.228C1.73928 12.1833 1.7544 12.1403 1.77739 12.1015C1.80038 12.0626 1.83079 12.0287 1.8669 12.0016C1.90301 11.9745 1.9441 11.9547 1.98783 11.9435C2.03156 11.9323 2.07708 11.9298 2.12177 11.9362C2.16646 11.9425 2.20947 11.9577 2.24832 11.9807C2.28717 12.0036 2.32112 12.0341 2.34822 12.0702C2.37532 12.1063 2.39504 12.1474 2.40626 12.1911C2.41747 12.2348 2.41997 12.2803 2.4136 12.325H2.41348Z" fill="#1A16BF"/>
<path d="M4.94837 22.4776C4.87669 22.5339 4.78561 22.5595 4.69509 22.5487C4.60458 22.538 4.52203 22.4917 4.46556 22.4202C4.07066 21.9186 3.71189 21.3895 3.39195 20.837C3.36174 20.7848 3.34581 20.7255 3.34576 20.6652C3.34571 20.6048 3.36154 20.5455 3.39166 20.4932C3.42178 20.4409 3.46513 20.3975 3.51736 20.3672C3.56958 20.337 3.62884 20.321 3.68919 20.321C3.74952 20.321 3.80878 20.3369 3.86105 20.3671C3.91333 20.3972 3.9568 20.4405 3.98714 20.4926C4.29061 21.0169 4.631 21.5188 5.00573 21.9947C5.06203 22.0664 5.0876 22.1575 5.07685 22.248C5.0661 22.3385 5.01989 22.4211 4.94837 22.4776Z" fill="#1A16BF"/>
<path d="M12.1004 27.1211C12.0467 27.154 11.9849 27.1715 11.9219 27.1716C11.8944 27.1715 11.8671 27.1682 11.8404 27.1618C11.2199 27.0117 10.6109 26.8173 10.0182 26.5799C9.97597 26.5634 9.93746 26.5386 9.90486 26.5071C9.87226 26.4756 9.84622 26.4379 9.82824 26.3963C9.81025 26.3547 9.80068 26.3099 9.80008 26.2646C9.79947 26.2192 9.80784 26.1742 9.82471 26.1321C9.84157 26.09 9.8666 26.0517 9.89834 26.0193C9.93009 25.9869 9.96793 25.9611 10.0097 25.9434C10.0514 25.9258 10.0963 25.9165 10.1416 25.9162C10.187 25.9159 10.2319 25.9246 10.2739 25.9417C10.8359 26.1667 11.4133 26.3511 12.0018 26.4935C12.0678 26.5095 12.1277 26.5447 12.1738 26.5947C12.2199 26.6447 12.2501 26.7072 12.2607 26.7744C12.2712 26.8416 12.2616 26.9103 12.233 26.9721C12.2045 27.0338 12.1583 27.0856 12.1002 27.1211H12.1004Z" fill="#1A16BF"/>
<path d="M8.22925 25.3078C8.17984 25.3844 8.10204 25.4383 8.01294 25.4576C7.92384 25.4769 7.83073 25.46 7.75405 25.4107C7.2177 25.0651 6.70652 24.6819 6.22435 24.264C6.19024 24.2344 6.1623 24.1984 6.1421 24.158C6.12191 24.1177 6.10987 24.0737 6.10667 24.0287C6.10347 23.9836 6.10917 23.9384 6.12344 23.8956C6.13772 23.8528 6.16029 23.8132 6.18987 23.7791C6.21944 23.7449 6.25545 23.717 6.29583 23.6968C6.33621 23.6766 6.38017 23.6646 6.4252 23.6614C6.47023 23.6582 6.51545 23.6639 6.55828 23.6781C6.60111 23.6924 6.64071 23.715 6.67482 23.7446C7.13232 24.1411 7.61739 24.5047 8.12636 24.8325C8.20292 24.882 8.25674 24.9598 8.27602 25.0489C8.29531 25.138 8.27849 25.2311 8.22925 25.3078Z" fill="#1A16BF"/>
<path d="M14.3628 27.5215C14.2947 27.5181 14.229 27.4946 14.1743 27.4539C14.1195 27.4132 14.078 27.3572 14.0551 27.2929C14.0323 27.2286 14.029 27.159 14.0457 27.0928C14.0624 27.0267 14.0984 26.967 14.1491 26.9213C14.1822 26.8912 14.221 26.868 14.2632 26.8532C14.3053 26.8383 14.35 26.8319 14.3947 26.8346C14.5956 26.844 14.7971 26.8487 14.9991 26.8487C15.4034 26.8487 15.8087 26.8298 16.2093 26.792C16.2545 26.7874 16.3 26.7918 16.3435 26.8049C16.3869 26.818 16.4273 26.8396 16.4623 26.8684C16.4974 26.8972 16.5264 26.9327 16.5477 26.9727C16.569 27.0128 16.5821 27.0566 16.5864 27.1018C16.5906 27.147 16.5859 27.1925 16.5725 27.2358C16.559 27.2792 16.5371 27.3194 16.5081 27.3542C16.479 27.3891 16.4434 27.4178 16.4032 27.4388C16.3629 27.4598 16.319 27.4726 16.2738 27.4765C15.6386 27.5363 15.0001 27.5513 14.3628 27.5215Z" fill="#1A16BF"/>
</svg>
