<svg width="16" height="16" viewBox="0 0 16 16" fill="none" xmlns="http://www.w3.org/2000/svg">
<g clip-path="url(#clip0_65_1598)">
<path d="M1.26029 15.7923C0.603674 15.7923 0.071167 15.2598 0.071167 14.6032C0.071167 13.9466 0.603674 13.4141 1.26029 13.4141C1.9169 13.4141 2.44941 13.9466 2.44941 14.6032C2.44941 15.2598 1.9169 15.7923 1.26029 15.7923Z" fill="white"/>
<path d="M5.15211 13.2063H14.532C15.3034 13.2063 15.9288 13.8317 15.9288 14.6032C15.9288 15.3746 15.3034 16 14.532 16H5.15211C4.38064 16 3.75528 15.3746 3.75528 14.6032C3.75528 13.8317 4.38064 13.2063 5.15211 13.2063Z" fill="white"/>
<path d="M1.26029 11.3902C0.603674 11.3902 0.071167 10.8577 0.071167 10.2011C0.071167 9.54449 0.603674 9.01199 1.26029 9.01199C1.9169 9.01199 2.44941 9.54449 2.44941 10.2011C2.44941 10.8577 1.9169 11.3902 1.26029 11.3902Z" fill="white"/>
<path d="M14.532 11.5979H5.15211C4.38064 11.5979 3.75528 10.9725 3.75528 10.2011C3.75528 9.4296 4.38064 8.80424 5.15211 8.80424H14.532C15.3034 8.80424 15.9288 9.4296 15.9288 10.2011C15.9288 10.9725 15.3034 11.5979 14.532 11.5979Z" fill="white"/>
<path d="M1.26029 6.98804C0.603674 6.98804 0.071167 6.45557 0.071167 5.79895C0.071167 5.14234 0.603674 4.60983 1.26029 4.60983C1.9169 4.60983 2.44941 5.14234 2.44941 5.79895C2.44941 6.45557 1.9169 6.98804 1.26029 6.98804Z" fill="white"/>
<path d="M14.532 7.1958H5.15211C4.38064 7.1958 3.75528 6.57044 3.75528 5.79897C3.75528 5.0275 4.38064 4.40213 5.15211 4.40213H14.532C15.3034 4.40213 15.9288 5.0275 15.9288 5.79897C15.9288 6.57044 15.3034 7.1958 14.532 7.1958Z" fill="white"/>
<path d="M1.26029 2.58594C0.603674 2.58594 0.071167 2.05347 0.071167 1.39685C0.071167 0.740234 0.603674 0.207692 1.26029 0.207692C1.9169 0.207692 2.44941 0.740234 2.44941 1.39685C2.44941 2.05347 1.9169 2.58594 1.26029 2.58594Z" fill="white"/>
<path d="M14.532 2.79364H5.15211C4.38064 2.79364 3.75528 2.16828 3.75528 1.39681C3.75528 0.625342 4.38064 -1.81198e-05 5.15211 -1.81198e-05H14.532C15.3034 -1.81198e-05 15.9288 0.625342 15.9288 1.39681C15.9288 2.16828 15.3034 2.79364 14.532 2.79364Z" fill="white"/>
</g>
<defs>
<clipPath id="clip0_65_1598">
<rect width="16" height="16" fill="white" transform="matrix(1 0 0 -1 0 16)"/>
</clipPath>
</defs>
</svg>
