<svg width="35" height="35" viewBox="0 0 35 35" fill="none" xmlns="http://www.w3.org/2000/svg">
<path d="M30.845 17.4953C30.6887 16.7102 29.9925 16.1384 29.1578 16.1029C28.8949 16.0922 28.6711 15.9004 28.6214 15.6411C28.5681 15.3818 28.6995 15.1189 28.9375 15.0088C29.6941 14.6536 30.1168 13.8579 29.957 13.0729L29.8078 12.327C29.6124 11.3431 28.5254 10.7285 27.5735 10.963C27.3071 11.0269 27.0336 11.0766 26.7636 11.1299C26.3658 11.2081 25.9679 11.2898 25.5701 11.3679C25.0444 11.4745 24.5187 11.5775 23.993 11.684C23.3678 11.8083 22.7391 11.9363 22.1139 12.0606C21.4142 12.2027 20.7144 12.3412 20.0146 12.4832C19.2687 12.6324 18.5192 12.7816 17.7733 12.9344C17.006 13.0871 16.2388 13.2434 15.4751 13.3961C14.7149 13.5489 13.9583 13.7016 13.1981 13.8543C12.4735 14 11.7489 14.1456 11.0243 14.2913C10.36 14.4227 9.69934 14.5577 9.0351 14.6891C8.45966 14.8028 7.88422 14.92 7.31234 15.0336C6.85412 15.126 6.3959 15.2183 5.93412 15.3107C5.61799 15.3746 5.30181 15.4386 4.98571 15.5025C4.84004 15.5309 4.69444 15.5629 4.5488 15.5913C4.5417 15.5913 4.5346 15.5949 4.52746 15.5949C4.6056 15.2255 4.57008 14.8312 4.39958 14.4618C4.04078 13.6874 3.20604 13.2825 2.4033 13.4388C2.16531 13.4849 1.90601 13.3961 1.803 13.1759L1.48331 12.4832C1.38033 12.263 1.48331 12.0073 1.67161 11.8546C1.70713 11.8261 27.3106 0.0224838 27.3532 0.0118637C27.5912 -0.0343132 27.8505 0.0544891 27.9535 0.274719L28.2732 0.967378C28.3762 1.18757 28.2732 1.44332 28.085 1.59606C27.4456 2.10405 27.2111 3.00273 27.5699 3.77705C27.9287 4.55141 28.7634 4.95635 29.5662 4.80005C29.8041 4.75388 30.0635 4.84268 30.1665 5.06291L30.4861 5.75557C30.5892 5.9758 30.4861 6.23151 30.2979 6.38429C29.6585 6.89224 29.4241 7.79092 29.7828 8.56524C30.1416 9.33956 30.9763 9.74454 31.7791 9.58825C32.0171 9.54207 32.2764 9.63087 32.3794 9.8511L32.6991 10.5438C32.8021 10.764 32.6991 11.0197 32.5108 11.1725C31.8714 11.6804 31.637 12.5791 31.9957 13.3535C32.3545 14.1278 33.1893 14.5327 33.992 14.3765C34.23 14.3303 34.4893 14.4191 34.5923 14.6393L34.944 15.4066C35.047 15.6268 34.9511 15.8861 34.7308 15.9891L30.9053 17.7545L30.845 17.4953Z" fill="#1A16BF"/>
<path d="M0.33604 17.7403C0.378665 17.719 28.0175 12.1742 28.0637 12.1742C28.3053 12.1849 28.5397 12.3341 28.5859 12.5685L28.7351 13.3145C28.7812 13.5525 28.6249 13.7798 28.4047 13.8828C27.6659 14.2309 27.2289 15.0479 27.3959 15.8862C27.5629 16.7245 28.2839 17.3106 29.1009 17.3461C29.3425 17.3568 29.5769 17.5059 29.6231 17.7404L29.7332 18.2874L29.7723 18.4899C29.8185 18.7279 29.6622 18.9552 29.442 19.0582C28.7031 19.4063 28.2662 20.2233 28.4332 21.0615C28.6001 21.8999 29.3212 22.486 30.1382 22.5215C30.3797 22.5322 30.6142 22.6813 30.6603 22.9158L30.8095 23.6617C30.8557 23.8997 30.6994 24.127 30.4791 24.2301C29.7403 24.5782 29.3034 25.3951 29.4704 26.2334C29.6373 27.0717 30.3584 27.6578 31.1754 27.6933C31.4169 27.704 31.6513 27.8532 31.6975 28.0876L31.8645 28.9153C31.9107 29.1533 31.7579 29.3841 31.5199 29.4303C31.5199 29.4303 3.74609 35 3.71767 35C3.51165 35 3.33049 34.8544 3.28787 34.6483L3.12092 33.8207C3.07474 33.5827 3.23103 33.3554 3.45126 33.2524C4.1901 32.9043 4.62701 32.0873 4.46006 31.249C4.29311 30.4107 3.57204 29.8246 2.75505 29.7891C2.51348 29.7784 2.27907 29.6292 2.2329 29.3948L2.08371 28.6489C2.03753 28.4109 2.19382 28.1835 2.41405 28.0805C3.15289 27.7324 3.58983 26.9154 3.42285 26.0771C3.2559 25.2388 2.53482 24.6528 1.71784 24.6172C1.4763 24.6066 1.24186 24.4574 1.19568 24.2229L1.0465 23.477C1.00032 23.239 1.15665 23.0117 1.37684 22.9087C2.11571 22.5606 2.55262 21.7436 2.38564 20.9053C2.21869 20.067 1.49761 19.4809 0.680629 19.4453C0.439087 19.4347 0.204648 19.2855 0.158471 19.0511L0.00928285 18.3051C-0.040482 18.0671 0.115775 17.8434 0.33604 17.7403ZM24.0108 26.8444C24.1067 27.3239 24.5756 27.6365 25.0551 27.5406C25.5346 27.4447 25.8472 26.9758 25.7513 26.4963L24.5791 20.6637L23.858 17.069C23.7728 16.6463 23.4034 16.355 22.9878 16.355C22.9309 16.355 22.8705 16.3621 22.8137 16.3727C22.3342 16.4687 22.0216 16.9375 22.1175 17.4171L22.9238 21.4274L24.0108 26.8444ZM7.99791 30.059C8.09382 30.5385 8.5627 30.8511 9.04223 30.7552C9.52176 30.6593 9.83435 30.1904 9.73844 29.7109L9.3335 27.6969L8.87532 25.4129L8.5059 23.5729L7.84876 20.2836C7.76355 19.8609 7.39409 19.5696 6.9785 19.5696C6.92166 19.5696 6.86128 19.5767 6.80448 19.5874C6.77962 19.591 6.75475 19.5981 6.73344 19.6052C6.29298 19.7331 6.01943 20.1771 6.11182 20.6317L6.24321 21.296L6.58777 23.0152L7.99791 30.059Z" fill="#1A16BF"/>
</svg>
