<svg width="27" height="27" viewBox="0 0 27 27" fill="none" xmlns="http://www.w3.org/2000/svg">
<path d="M17.0916 18.2206C17.089 18.218 17.0863 18.2154 17.0839 18.2126C16.9894 18.1089 16.7959 17.9352 16.5618 17.9352C16.3395 17.9352 16.1317 18.0962 15.9966 18.2313L15.7724 18.4555L19.6668 22.35C19.7196 22.2966 19.7723 22.2429 19.8235 22.1879C19.8343 22.1739 19.8466 22.1609 19.86 22.1492C20.2566 21.7291 20.252 21.3771 19.846 20.9751L17.0916 18.2206Z" fill="#1A16BF"/>
<path d="M15.235 18.9931L15.2309 18.9971C14.7207 19.5041 14.0302 19.7879 13.3109 19.7864C12.5917 19.7849 11.9024 19.4981 11.3943 18.9889L6.64849 14.223C6.14455 13.7102 5.86453 13.0185 5.86981 12.2995C5.87509 11.5806 6.16524 10.893 6.67665 10.3877L6.81903 10.2476L2.93968 6.36853L1.86917 7.43904C1.51118 7.78576 1.29381 8.25245 1.25877 8.74959C1.18642 9.633 1.3537 10.559 1.8003 11.755C2.54138 13.7573 3.6662 15.6295 5.34057 17.6475C7.37085 20.0709 9.81345 21.9841 12.6001 23.3331C13.6073 23.8149 14.9492 24.3803 16.3848 24.4721C16.4514 24.4766 16.5254 24.4766 16.597 24.4766C17.2987 24.4766 17.8158 24.2592 18.2729 23.7721C18.5799 23.4187 18.9053 23.0816 19.2476 22.7622L19.291 22.72L15.3995 18.8286L15.235 18.9931ZM2.81966 11.5995C2.76732 11.5995 2.71616 11.5839 2.6727 11.5547C2.62924 11.5256 2.59544 11.4842 2.5756 11.4357C2.50067 11.253 2.42837 11.0673 2.36066 10.8839C2.3484 10.8513 2.3427 10.8167 2.34388 10.7819C2.34506 10.7472 2.35311 10.713 2.36756 10.6814C2.382 10.6497 2.40256 10.6213 2.42805 10.5976C2.45355 10.574 2.48346 10.5556 2.51609 10.5435C2.54871 10.5315 2.58339 10.526 2.61814 10.5274C2.65288 10.5289 2.687 10.5371 2.71854 10.5518C2.75007 10.5664 2.7784 10.5872 2.80188 10.6128C2.82536 10.6385 2.84353 10.6685 2.85536 10.7012C2.92096 10.8789 2.99094 11.0587 3.0635 11.2357C3.07995 11.2757 3.08629 11.3192 3.08196 11.3623C3.07762 11.4054 3.06275 11.4467 3.03864 11.4827C3.01454 11.5186 2.98196 11.5481 2.94377 11.5685C2.90557 11.5889 2.86295 11.5996 2.81966 11.5996V11.5995ZM6.36045 16.9641C6.30663 17.0088 6.23729 17.0302 6.16767 17.0237C6.09804 17.0172 6.03385 16.9834 5.9892 16.9295C4.70676 15.3838 3.73407 13.9095 3.01551 12.4224C2.98723 12.3597 2.98453 12.2885 3.00798 12.2239C3.03143 12.1593 3.07918 12.1064 3.14107 12.0765C3.20295 12.0466 3.27406 12.042 3.33926 12.0638C3.40446 12.0855 3.45859 12.1319 3.49012 12.1929C4.18986 13.6411 5.14002 15.0804 6.39484 16.5928C6.41696 16.6195 6.43362 16.6502 6.44386 16.6833C6.45411 16.7164 6.45774 16.7511 6.45455 16.7856C6.45135 16.8201 6.4414 16.8536 6.42526 16.8842C6.40911 16.9149 6.38709 16.942 6.36045 16.9641Z" fill="#1A16BF"/>
<path d="M7.42142 9.65352C7.84662 9.22832 7.84662 8.91113 7.4201 8.48461C7.39489 8.45919 4.99511 6.03489 4.69858 5.75793C4.69626 5.75577 4.69399 5.75355 4.69178 5.75134L4.67691 5.73641C4.55351 5.61296 4.35934 5.46552 4.13685 5.46552C3.95724 5.46552 3.75912 5.56197 3.56368 5.74459L3.31256 5.99592L7.19429 9.8777L7.42142 9.65352Z" fill="#1A16BF"/>
<path d="M18.9915 6.43307C18.0889 6.43642 17.2156 6.7542 16.5219 7.33177C15.8282 7.90933 15.3575 8.71056 15.1907 9.59766H22.7924C22.6255 8.71056 22.1548 7.90932 21.4611 7.33176C20.7674 6.7542 19.8942 6.43642 18.9915 6.43307Z" fill="#1A16BF"/>
<path d="M18.9915 5.33576C19.1046 5.33576 19.2151 5.30223 19.3091 5.23942C19.4031 5.17661 19.4764 5.08733 19.5197 4.98287C19.5629 4.87842 19.5743 4.76348 19.5522 4.65259C19.5301 4.54171 19.4757 4.43985 19.3957 4.3599C19.3158 4.27996 19.2139 4.22552 19.1031 4.20346C18.9922 4.1814 18.8772 4.19272 18.7728 4.23599C18.6683 4.27925 18.579 4.35252 18.5162 4.44653C18.4534 4.54053 18.4199 4.65106 18.4199 4.76412C18.4201 4.91567 18.4803 5.06098 18.5875 5.16814C18.6947 5.27531 18.84 5.33559 18.9915 5.33576Z" fill="#1A16BF"/>
<path d="M24.6834 2.53123H13.2996C13.1595 2.53068 13.0206 2.5579 12.8911 2.6113C12.7615 2.66471 12.6438 2.74325 12.5448 2.84239C12.4458 2.94152 12.3673 3.05929 12.3141 3.1889C12.2608 3.31851 12.2337 3.45739 12.2344 3.59752V11.322C12.2336 11.4624 12.2606 11.6015 12.3138 11.7314C12.367 11.8613 12.4454 11.9793 12.5444 12.0788C12.6434 12.1783 12.7611 12.2572 12.8907 12.3111C13.0203 12.3649 13.1593 12.3926 13.2996 12.3926H15.4645C17.3178 12.3926 17.4781 14.107 17.5465 14.8386C17.5476 14.8497 17.5486 14.8621 17.5496 14.8731C17.8971 14.6572 18.4794 14.137 18.6806 13.0137C18.712 12.8397 18.8035 12.6822 18.9391 12.5687C19.0747 12.4552 19.2458 12.3929 19.4226 12.3926H24.6834C24.823 12.3923 24.9612 12.3643 25.0899 12.3102C25.2185 12.2561 25.3352 12.1769 25.433 12.0773C25.5308 11.9777 25.6078 11.8596 25.6595 11.73C25.7113 11.6003 25.7367 11.4616 25.7344 11.322V3.59752C25.7367 3.45815 25.7112 3.31972 25.6593 3.19032C25.6075 3.06092 25.5304 2.94315 25.4326 2.84388C25.3348 2.7446 25.2181 2.66583 25.0895 2.61215C24.9608 2.55847 24.8228 2.53096 24.6834 2.53123ZM23.3228 11.0215H14.6602C14.4736 11.0205 14.2949 10.9459 14.1629 10.8139C14.0309 10.682 13.9563 10.5033 13.9553 10.3167C13.9543 10.1301 14.0269 9.95057 14.1574 9.81717C14.2879 9.68377 14.4658 9.60723 14.6524 9.60417C14.7997 8.69104 15.2315 7.84772 15.8863 7.19443C16.5411 6.54115 17.3854 6.11125 18.2988 5.96603V5.62078C18.1684 5.51986 18.0633 5.38984 17.9921 5.2411C17.9209 5.09235 17.8854 4.929 17.8885 4.76411C17.8875 4.61916 17.9152 4.47544 17.97 4.34123C18.0247 4.20702 18.1055 4.08498 18.2077 3.98213C18.3098 3.87928 18.4313 3.79765 18.5651 3.74194C18.6989 3.68624 18.8425 3.65756 18.9874 3.65756C19.1324 3.65756 19.2759 3.68624 19.4097 3.74194C19.5435 3.79765 19.665 3.87928 19.7672 3.98213C19.8693 4.08498 19.9501 4.20702 20.0049 4.34123C20.0597 4.47544 20.0873 4.61916 20.0863 4.76411C20.0883 4.92947 20.0517 5.09301 19.9794 5.24172C19.907 5.39044 19.801 5.52023 19.6697 5.62078V5.96603C20.5841 6.11097 21.4294 6.54061 22.0854 7.19381C22.7414 7.847 23.1747 8.69047 23.3235 9.60417C23.51 9.60651 23.688 9.68223 23.819 9.81492C23.95 9.94762 24.0234 10.1266 24.0234 10.3131C24.0233 10.4995 23.9497 10.6784 23.8187 10.811C23.6876 10.9436 23.5095 11.0193 23.3231 11.0215H23.3228Z" fill="#1A16BF"/>
<path d="M23.323 10.125H14.6602C14.6112 10.125 14.5643 10.1444 14.5296 10.1791C14.495 10.2137 14.4756 10.2606 14.4756 10.3096C14.4756 10.3585 14.495 10.4055 14.5296 10.4401C14.5643 10.4747 14.6112 10.4941 14.6602 10.4941H23.323C23.372 10.4941 23.4189 10.4747 23.4536 10.4401C23.4882 10.4055 23.5076 10.3585 23.5076 10.3096C23.5076 10.2606 23.4882 10.2137 23.4536 10.1791C23.4189 10.1444 23.372 10.125 23.323 10.125Z" fill="#1A16BF"/>
</svg>
