<svg width="22" height="22" viewBox="0 0 22 22" fill="none" xmlns="http://www.w3.org/2000/svg">
<path d="M11 5.86667C12.6174 5.86667 13.9333 4.5507 13.9333 2.93333C13.9333 1.31597 12.6174 0 11 0C9.38263 0 8.06667 1.31597 8.06667 2.93333C8.06667 4.5507 9.38263 5.86667 11 5.86667Z" fill="white"/>
<path d="M11 16.1334C9.38263 16.1334 8.06667 17.4493 8.06667 19.0667C8.06667 20.6841 9.38263 22 11 22C12.6174 22 13.9333 20.6841 13.9333 19.0667C13.9333 17.4493 12.6174 16.1334 11 16.1334Z" fill="white"/>
<path d="M11 8.06665C9.38263 8.06665 8.06667 9.38262 8.06667 11C8.06667 12.6174 9.38263 13.9333 11 13.9333C12.6174 13.9333 13.9333 12.6174 13.9333 11C13.9333 9.38262 12.6174 8.06665 11 8.06665Z" fill="white"/>
</svg>
