<svg width="18" height="23" viewBox="0 0 18 23" fill="none" xmlns="http://www.w3.org/2000/svg">
<path fill-rule="evenodd" clip-rule="evenodd" d="M5.6247 16.8782C1.55114 15.7995 0.934716 13.3411 3.2287 10.7404L1.94008 8.80595C-1.95662 12.8201 0.399011 16.716 5.60929 16.8782H5.6247ZM16.9992 9.33505C18.1 13.4042 16.2654 15.1647 12.8817 14.4719L11.8543 16.5531C17.2598 17.9217 19.462 13.9443 16.9912 9.33285L16.9992 9.33505ZM4.74776 3.26545C7.71982 0.278713 10.1606 0.975863 11.2657 4.25613L13.592 4.10937C12.062 -1.26969 7.50774 -1.17429 4.75876 3.26545H4.74776Z" fill="#1A16BF"/>
<path d="M5.6247 16.8782C1.55114 15.7995 0.934716 13.3411 3.2287 10.7404L1.94008 8.80595C-1.95662 12.8201 0.399011 16.716 5.60929 16.8782H5.6247ZM16.9992 9.33505C18.1 13.4042 16.2654 15.1647 12.8817 14.4719L11.8543 16.5531C17.2598 17.9217 19.462 13.9443 16.9912 9.33285L16.9992 9.33505ZM4.74776 3.26545C7.71982 0.278713 10.1606 0.975863 11.2657 4.25613L13.592 4.10937C12.062 -1.26969 7.50774 -1.17429 4.75876 3.26545H4.74776Z" fill="#1A16BF"/>
<path fill-rule="evenodd" clip-rule="evenodd" d="M10.6163 18.2784L10.3154 18.0802C8.34334 16.7976 6.5659 15.2381 5.03761 13.4497C3.38384 11.5373 2.05842 9.36406 1.11523 7.0183L1.0712 6.91263L1.26933 6.81356C3.34234 5.74576 5.5564 4.9776 7.84529 4.53205C10.4287 4.01592 13.0817 3.9489 15.6879 4.33391L15.6658 4.70083C15.5432 6.9915 15.1011 9.25379 14.3523 11.4221C13.5073 13.9075 12.2413 16.2292 10.6097 18.2857L10.6163 18.2784ZM11.8345 16.5546L11.5483 16.4408C9.68989 15.7264 7.94366 14.749 6.36293 13.5385C4.66011 12.2411 3.1831 10.6716 1.99143 8.89327L1.93713 8.81401L2.0839 8.69586C3.6142 7.44646 5.31441 6.42105 7.13346 5.65042C9.18181 4.77149 11.3665 4.25264 13.5913 4.11669C13.6096 4.21943 13.625 4.3185 13.6397 4.42124C13.9385 6.33841 13.9691 8.28783 13.7307 10.2134C13.4648 12.4194 12.8232 14.5636 11.8337 16.5531L11.8345 16.5546Z" fill="#808080"/>
<path fill-rule="evenodd" clip-rule="evenodd" d="M6.61978 6.77982H8.93138C9.18348 6.82275 9.42203 6.92409 9.62796 7.07572C9.83388 7.22736 10.0015 7.42509 10.1173 7.65309C10.2045 7.85904 10.2383 8.08369 10.2156 8.30621C10.19 8.53759 10.1112 8.7599 9.98518 8.95566C9.82266 9.19452 9.60364 9.38951 9.34759 9.5233C9.09153 9.65709 8.80638 9.72552 8.51749 9.72252C8.11021 9.64914 7.90474 10.0894 8.24964 10.416L10.5678 12.5654H6.61978C6.59139 12.566 6.56315 12.561 6.53671 12.5506C6.51026 12.5403 6.48612 12.5248 6.46566 12.5051C6.44521 12.4854 6.42885 12.4618 6.41752 12.4358C6.40618 12.4098 6.4001 12.3817 6.39963 12.3533V6.9963C6.40059 6.93855 6.42421 6.88349 6.46539 6.843C6.50657 6.8025 6.56202 6.77981 6.61978 6.77982ZM10.4945 6.77982H12.1045C12.1609 6.78072 12.2148 6.80322 12.2551 6.84268C12.2953 6.88214 12.3189 6.93555 12.321 6.9919V12.3533C12.3189 12.4097 12.2953 12.4631 12.2551 12.5026C12.2148 12.542 12.1609 12.5645 12.1045 12.5654H11.7376L9.37829 10.3639C9.90166 10.1944 10.3519 9.85203 10.6552 9.39303C10.8547 9.09137 10.9804 8.74695 11.0221 8.38766C11.0607 8.02817 11.0053 7.66482 10.8614 7.33313C10.7688 7.13042 10.645 6.94347 10.4945 6.77908V6.77982Z" fill="#1A16BF"/>
<path d="M6.61978 6.77982H8.93138C9.18348 6.82275 9.42203 6.92409 9.62796 7.07572C9.83388 7.22736 10.0015 7.42509 10.1173 7.65309C10.2045 7.85904 10.2383 8.08369 10.2156 8.30621C10.19 8.53759 10.1112 8.7599 9.98518 8.95566C9.82266 9.19452 9.60364 9.38951 9.34759 9.5233C9.09153 9.65709 8.80638 9.72552 8.51749 9.72252C8.11021 9.64914 7.90474 10.0894 8.24964 10.416L10.5678 12.5654H6.61978C6.59139 12.566 6.56315 12.561 6.53671 12.5506C6.51026 12.5403 6.48612 12.5248 6.46566 12.5051C6.44521 12.4854 6.42885 12.4618 6.41752 12.4358C6.40618 12.4098 6.4001 12.3817 6.39963 12.3533V6.9963C6.40059 6.93855 6.42421 6.88349 6.46539 6.843C6.50657 6.8025 6.56202 6.77981 6.61978 6.77982ZM10.4945 6.77982H12.1045C12.1609 6.78072 12.2148 6.80322 12.2551 6.84268C12.2953 6.88214 12.3189 6.93555 12.321 6.9919V12.3533C12.3189 12.4097 12.2953 12.4631 12.2551 12.5026C12.2148 12.542 12.1609 12.5645 12.1045 12.5654H11.7376L9.37829 10.3639C9.90166 10.1944 10.3519 9.85203 10.6552 9.39303C10.8547 9.09137 10.9804 8.74695 11.0221 8.38766C11.0607 8.02817 11.0053 7.66482 10.8614 7.33313C10.7688 7.13042 10.645 6.94347 10.4945 6.77908V6.77982Z" fill="#1A16BF"/>
<path fill-rule="evenodd" clip-rule="evenodd" d="M1.83002 21.9256V18.7003H2.88748V21.9256H1.83002Z" fill="#1A16BF"/>
<path fill-rule="evenodd" clip-rule="evenodd" d="M4.54006 20.0836H5.01339C5.13107 20.0939 5.24928 20.071 5.35463 20.0176C5.38757 19.9894 5.41314 19.9536 5.42912 19.9134C5.44511 19.8731 5.45102 19.8295 5.44636 19.7864C5.45172 19.7425 5.44646 19.6978 5.43101 19.6563C5.41556 19.6148 5.39037 19.5777 5.35756 19.5479C5.24354 19.4929 5.11668 19.4701 4.99064 19.4819H4.543L4.54006 20.0836ZM3.51855 21.9182V18.7128H5.05962C5.41866 18.683 5.77853 18.7596 6.09434 18.933C6.20265 19.0152 6.28815 19.1238 6.34273 19.2484C6.39731 19.3729 6.41917 19.5094 6.40622 19.6448C6.41237 19.8165 6.3677 19.9863 6.2778 20.1328C6.18201 20.2737 6.04482 20.3814 5.88519 20.441C6.04005 20.4646 6.18027 20.5459 6.2778 20.6685C6.37092 20.8138 6.41728 20.9841 6.41062 21.1565V21.6071C6.41062 21.7355 6.44732 21.8015 6.50235 21.8096V21.93H5.4603C5.45298 21.8601 5.43822 21.7912 5.41627 21.7245C5.41186 21.6803 5.41186 21.6358 5.41627 21.5917V21.2812C5.4323 21.1507 5.39675 21.0191 5.3172 20.9143C5.22133 20.8367 5.09878 20.7998 4.97596 20.8116H4.53566V21.9124L3.51855 21.9182Z" fill="#1A16BF"/>
<path fill-rule="evenodd" clip-rule="evenodd" d="M9.03047 20.6737H10.0138C10.0073 20.8587 9.96329 21.0404 9.88445 21.208C9.80561 21.3755 9.69359 21.5252 9.55517 21.6482C9.24685 21.9035 8.85424 22.0344 8.4544 22.0151C8.23029 22.0274 8.00606 21.9933 7.7957 21.915C7.58535 21.8367 7.39339 21.7159 7.23182 21.5601C7.07828 21.3931 6.95987 21.1969 6.8836 20.9833C6.80733 20.7696 6.77477 20.5428 6.78785 20.3163C6.77875 20.0904 6.81425 19.8649 6.89231 19.6527C6.97038 19.4406 7.08949 19.2459 7.24283 19.0797C7.401 18.9219 7.59063 18.7992 7.79938 18.7195C8.00813 18.6399 8.23131 18.6051 8.4544 18.6174C8.84981 18.5953 9.24012 18.715 9.55517 18.955C9.69137 19.077 9.8013 19.2255 9.87826 19.3914C9.95522 19.5574 9.9976 19.7372 10.0028 19.92H9.01213C9.01251 19.8545 8.99999 19.7895 8.97527 19.7288C8.95054 19.6681 8.91411 19.6129 8.86805 19.5663C8.82198 19.5197 8.76719 19.4826 8.70679 19.4572C8.64639 19.4317 8.58158 19.4184 8.51605 19.418C8.49553 19.4166 8.47493 19.4166 8.4544 19.418C8.36508 19.4122 8.27577 19.4297 8.19532 19.469C8.11487 19.5082 8.04607 19.5678 7.99575 19.6419C7.88162 19.8463 7.83055 20.0799 7.84899 20.3133C7.83176 20.545 7.88827 20.7762 8.01043 20.9738C8.06375 21.0485 8.1351 21.1086 8.21786 21.1484C8.30061 21.1881 8.39208 21.2063 8.48376 21.2013C8.61958 21.2045 8.75127 21.1545 8.85068 21.0619C8.952 20.9557 9.01054 20.8159 9.01506 20.6692L9.03047 20.6737Z" fill="#1A16BF"/>
<path fill-rule="evenodd" clip-rule="evenodd" d="M11.1256 21.9256V19.5479H10.2009V18.6989H13.0783V19.5479H12.1684V21.9256H11.1256Z" fill="#1A16BF"/>
<path fill-rule="evenodd" clip-rule="evenodd" d="M15.5191 20.6744H16.4988C16.4941 20.8582 16.452 21.0392 16.375 21.2063C16.2981 21.3733 16.1879 21.5229 16.0511 21.646C15.7097 21.8915 15.2956 22.0149 14.8754 21.9964C14.4553 21.9779 14.0537 21.8185 13.7351 21.544C13.4492 21.1925 13.2931 20.7532 13.2931 20.3001C13.2931 19.847 13.4492 19.4077 13.7351 19.0562C13.8927 18.9013 14.0809 18.7808 14.2875 18.7025C14.4942 18.6241 14.715 18.5897 14.9357 18.6013C15.3313 18.5776 15.7221 18.6975 16.0365 18.9388C16.1738 19.0602 16.2847 19.2084 16.3624 19.3744C16.44 19.5404 16.4827 19.7206 16.4878 19.9038H15.4934C15.4891 19.7658 15.4325 19.6346 15.3349 19.5369C15.2266 19.4457 15.0873 19.3997 14.946 19.4085C14.8576 19.4029 14.7692 19.4202 14.6895 19.4587C14.6098 19.4973 14.5414 19.5558 14.491 19.6286C14.3743 19.8323 14.3207 20.066 14.3369 20.3001C14.3228 20.5315 14.3791 20.7617 14.4983 20.9606C14.5528 21.0352 14.625 21.095 14.7084 21.1348C14.7918 21.1745 14.8838 21.1928 14.9761 21.1881C15.1117 21.1903 15.243 21.1404 15.343 21.0486C15.4442 20.9424 15.503 20.8027 15.5081 20.656L15.5191 20.6744Z" fill="#1A16BF"/>
</svg>
