<svg width="41" height="48" viewBox="0 0 41 48" fill="none" xmlns="http://www.w3.org/2000/svg">
<path d="M20.2105 0C10.1052 0 0 1.2632 0 10.1052V34.1052C0 38.9809 3.96627 42.9473 8.84213 42.9473L5.05266 46.7368V48H10.6863L15.739 42.9473H25.2632L30.3157 47.9999H35.3684V46.7367L31.5789 42.9472C36.4547 42.9472 40.4211 38.9809 40.4211 34.1051V10.1052C40.4209 1.2632 31.3768 0 20.2105 0ZM8.84213 37.8947C6.74525 37.8947 5.05266 36.2021 5.05266 34.1052C5.05266 32.0083 6.74525 30.3157 8.84213 30.3157C10.939 30.3157 12.6316 32.0083 12.6316 34.1052C12.6316 36.2021 10.9389 37.8947 8.84213 37.8947ZM17.6841 20.2105H5.05266V10.1052H17.6843V20.2105H17.6841ZM31.5789 37.8947C29.4821 37.8947 27.7895 36.2021 27.7895 34.1052C27.7895 32.0083 29.4821 30.3157 31.5789 30.3157C33.6758 30.3157 35.3684 32.0083 35.3684 34.1052C35.3684 36.2021 33.6757 37.8947 31.5789 37.8947ZM35.3684 20.2105H22.7368V10.1052H35.3684V20.2105Z" fill="#1A16BF"/>
</svg>
