<svg width="22" height="22" viewBox="0 0 22 22" fill="none" xmlns="http://www.w3.org/2000/svg">
<g clip-path="url(#clip0_65_1588)">
<path d="M21.6307 10.0148L18.2965 6.68059V2.82902C18.2965 2.1326 17.7322 1.56821 17.0347 1.56821C16.3389 1.56821 15.7745 2.1326 15.7745 2.82902V4.15866L13.292 1.67599C12.0645 0.449239 9.93048 0.451415 8.70587 1.67821L0.369103 10.0148C-0.123034 10.5079 -0.123034 11.3058 0.369103 11.7982C0.861463 12.2911 1.66091 12.2911 2.15309 11.7982L10.4891 3.46135C10.7606 3.19121 11.2393 3.19121 11.5094 3.46055L19.8468 11.7982C20.094 12.0447 20.4163 12.1673 20.7386 12.1673C21.0615 12.1673 21.3843 12.0445 21.6308 11.7982C22.1231 11.3058 22.1231 10.508 21.6307 10.0148Z" fill="white"/>
<path d="M11.4379 5.85465C11.1957 5.61258 10.8035 5.61258 10.5621 5.85465L3.22902 13.1855C3.11324 13.3012 3.04761 13.4592 3.04761 13.6241V18.971C3.04761 20.2257 4.06492 21.2429 5.31956 21.2429H8.95015V15.6204H13.049V21.2429H16.6797C17.9343 21.2429 18.9516 20.2257 18.9516 18.971V13.6241C18.9516 13.4592 18.8865 13.3012 18.7702 13.1855L11.4379 5.85465Z" fill="white"/>
</g>
<defs>
<clipPath id="clip0_65_1588">
<rect width="22" height="22" fill="white"/>
</clipPath>
</defs>
</svg>
