<svg width="22" height="22" viewBox="0 0 22 22" fill="none" xmlns="http://www.w3.org/2000/svg">
<g clip-path="url(#clip0_65_1594)">
<path d="M11 0C4.91429 0 0 4.92939 0 11C0 17.0776 4.92335 22 11 22C17.104 22 22 17.0543 22 11C22 4.91511 17.067 0 11 0ZM16.6606 17.4787C15.0926 18.8528 13.1041 19.6035 11 19.6035C8.89624 19.6035 6.9081 18.853 5.34025 17.4795C5.12816 17.2937 5.0323 17.0082 5.08885 16.7319C5.63047 14.0864 7.31555 12 9.46053 11.3136C8.34121 10.651 7.57298 9.2897 7.57298 7.71678C7.57298 5.49319 9.10733 3.69063 11 3.69063C12.8927 3.69063 14.427 5.49319 14.427 7.71678C14.427 9.28946 13.659 10.6505 12.54 11.3132C14.685 11.9995 16.3701 14.0859 16.9119 16.7312C16.9684 17.007 16.8724 17.2931 16.6606 17.4787Z" fill="white"/>
</g>
<defs>
<clipPath id="clip0_65_1594">
<rect width="22" height="22" fill="white"/>
</clipPath>
</defs>
</svg>
