<svg width="111" height="135" viewBox="0 0 111 135" fill="none" xmlns="http://www.w3.org/2000/svg">
<path fill-rule="evenodd" clip-rule="evenodd" d="M34.4877 103.488C9.51079 96.874 5.73119 81.8006 19.7967 65.8542L11.8955 53.9935C-11.997 78.6059 2.44653 102.494 34.3932 103.488H34.4877ZM104.23 57.2376C110.98 82.1875 99.7309 92.9819 78.9835 88.7344L72.6842 101.495C105.828 109.887 119.331 85.4992 104.181 57.2241L104.23 57.2376ZM29.1107 20.022C47.3338 1.70892 62.2993 5.98348 69.0756 26.0964L83.3391 25.1965C73.9576 -7.78509 46.0335 -7.20015 29.1782 20.022H29.1107Z" fill="white"/>
<path d="M34.4877 103.488C9.51079 96.874 5.73119 81.8006 19.7967 65.8542L11.8955 53.9935C-11.997 78.6059 2.44653 102.494 34.3932 103.488H34.4877ZM104.23 57.2376C110.98 82.1875 99.7309 92.9819 78.9835 88.7344L72.6842 101.495C105.828 109.887 119.331 85.4992 104.181 57.2241L104.23 57.2376ZM29.1107 20.022C47.3338 1.70892 62.2993 5.98348 69.0756 26.0964L83.3391 25.1965C73.9576 -7.78509 46.0335 -7.20015 29.1782 20.022H29.1107Z" fill="white"/>
<path fill-rule="evenodd" clip-rule="evenodd" d="M65.0935 112.073L63.2487 110.859C51.157 102.994 40.2587 93.4323 30.888 82.4665C20.748 70.7407 12.6212 57.4156 6.83804 43.0326L6.56807 42.3847L7.78294 41.7773C20.4935 35.2301 34.069 30.5201 48.1032 27.7882C63.9432 24.6236 80.2101 24.2126 96.1897 26.5733L96.0548 28.8231C95.3027 42.8683 92.5918 56.7395 88.0006 70.0343C82.8197 85.2738 75.0574 99.5091 65.053 112.118L65.0935 112.073ZM72.5627 101.504L70.8079 100.807C59.4134 96.4259 48.7064 90.433 39.0142 83.011C28.5734 75.0563 19.5171 65.433 12.2105 54.5289L11.8775 54.043L12.7774 53.3186C22.1604 45.6579 32.5852 39.3706 43.7387 34.6455C56.2981 29.2564 69.6932 26.075 83.3346 25.2415C83.4471 25.8714 83.5416 26.4789 83.6315 27.1088C85.4635 38.8639 85.6513 50.8167 84.1895 62.6236C82.5591 76.1495 78.6251 89.2966 72.5582 101.495L72.5627 101.504Z" fill="#808080"/>
<path fill-rule="evenodd" clip-rule="evenodd" d="M40.589 41.5703H54.7626C56.3083 41.8335 57.771 42.4549 59.0336 43.3846C60.2962 44.3144 61.3237 45.5267 62.0338 46.9247C62.5687 48.1875 62.7761 49.565 62.6367 50.9293C62.4799 52.348 61.9963 53.7111 61.2239 54.9114C60.2274 56.3759 58.8845 57.5715 57.3145 58.3919C55.7445 59.2122 53.9961 59.6318 52.2248 59.6134C49.7276 59.1634 48.4677 61.8632 50.5825 63.8655L64.7965 77.0446H40.589C40.4149 77.0482 40.2418 77.0173 40.0797 76.9539C39.9175 76.8904 39.7695 76.7955 39.6441 76.6747C39.5187 76.5539 39.4183 76.4095 39.3489 76.2498C39.2794 76.0902 39.2421 75.9183 39.2392 75.7442V42.8976C39.2451 42.5435 39.3899 42.206 39.6424 41.9577C39.8949 41.7094 40.2349 41.5702 40.589 41.5703ZM64.3466 41.5703H74.2185C74.5642 41.5758 74.8946 41.7138 75.1416 41.9557C75.3885 42.1977 75.5333 42.5251 75.5459 42.8706V75.7442C75.5333 76.0897 75.3885 76.4172 75.1416 76.6591C74.8946 76.9011 74.5642 77.039 74.2185 77.0446H71.9688L57.5028 63.546C60.7118 62.5065 63.4724 60.4075 65.332 57.5931C66.5556 55.7435 67.3263 53.6317 67.5817 51.4288C67.8183 49.2245 67.4787 46.9966 66.5963 44.9629C66.0284 43.72 65.2693 42.5737 64.3466 41.5658V41.5703Z" fill="white"/>
<path d="M40.589 41.5703H54.7626C56.3083 41.8335 57.771 42.4549 59.0336 43.3846C60.2962 44.3144 61.3237 45.5267 62.0338 46.9247C62.5687 48.1875 62.7761 49.565 62.6367 50.9293C62.4799 52.348 61.9963 53.7111 61.2239 54.9114C60.2274 56.3759 58.8845 57.5715 57.3145 58.3919C55.7445 59.2122 53.9961 59.6318 52.2248 59.6134C49.7276 59.1634 48.4677 61.8632 50.5825 63.8655L64.7965 77.0446H40.589C40.4149 77.0482 40.2418 77.0173 40.0797 76.9539C39.9175 76.8904 39.7695 76.7955 39.6441 76.6747C39.5187 76.5539 39.4183 76.4095 39.3489 76.2498C39.2794 76.0902 39.2421 75.9183 39.2392 75.7442V42.8976C39.2451 42.5435 39.3899 42.206 39.6424 41.9577C39.8949 41.7094 40.2349 41.5702 40.589 41.5703ZM64.3466 41.5703H74.2185C74.5642 41.5758 74.8946 41.7138 75.1416 41.9557C75.3885 42.1977 75.5333 42.5251 75.5459 42.8706V75.7442C75.5333 76.0897 75.3885 76.4172 75.1416 76.6591C74.8946 76.9011 74.5642 77.039 74.2185 77.0446H71.9688L57.5028 63.546C60.7118 62.5065 63.4724 60.4075 65.332 57.5931C66.5556 55.7435 67.3263 53.6317 67.5817 51.4288C67.8183 49.2245 67.4787 46.9966 66.5963 44.9629C66.0284 43.72 65.2693 42.5737 64.3466 41.5658V41.5703Z" fill="white"/>
<path fill-rule="evenodd" clip-rule="evenodd" d="M11.2206 134.436V114.661H17.7044V134.436H11.2206Z" fill="white"/>
<path fill-rule="evenodd" clip-rule="evenodd" d="M27.8374 123.142H30.7396C31.4611 123.205 32.1859 123.065 32.8318 122.737C33.0338 122.565 33.1906 122.345 33.2886 122.098C33.3866 121.851 33.4229 121.584 33.3943 121.32C33.4272 121.05 33.3949 120.777 33.3002 120.522C33.2054 120.268 33.051 120.04 32.8498 119.858C32.1507 119.52 31.3729 119.38 30.6001 119.453H27.8554L27.8374 123.142ZM21.574 134.391V114.737H31.023C33.2245 114.554 35.431 115.024 37.3674 116.087C38.0315 116.591 38.5557 117.257 38.8904 118.021C39.2251 118.785 39.359 119.621 39.2797 120.452C39.3174 121.505 39.0435 122.546 38.4922 123.444C37.9049 124.308 37.0638 124.968 36.085 125.334C37.0345 125.479 37.8943 125.977 38.4922 126.728C39.0632 127.619 39.3475 128.663 39.3067 129.721V132.483C39.3067 133.271 39.5316 133.676 39.8691 133.725V134.463H33.4798C33.4349 134.035 33.3444 133.612 33.2098 133.203C33.1828 132.932 33.1828 132.66 33.2098 132.389V130.485C33.3081 129.685 33.0901 128.878 32.6024 128.236C32.0145 127.759 31.2631 127.533 30.5101 127.606H27.8104V134.355L21.574 134.391Z" fill="white"/>
<path fill-rule="evenodd" clip-rule="evenodd" d="M55.37 126.76H61.3994C61.3594 127.894 61.0896 129.009 60.6062 130.036C60.1228 131.063 59.4359 131.981 58.5872 132.735C56.6967 134.301 54.2895 135.103 51.8379 134.985C50.4638 135.06 49.0889 134.851 47.7991 134.371C46.5093 133.891 45.3324 133.151 44.3417 132.195C43.4003 131.171 42.6742 129.968 42.2066 128.658C41.7389 127.348 41.5393 125.957 41.6195 124.569C41.5637 123.184 41.7813 121.801 42.26 120.5C42.7387 119.199 43.469 118.005 44.4092 116.987C45.379 116.019 46.5417 115.267 47.8216 114.778C49.1016 114.29 50.47 114.077 51.8379 114.152C54.2623 114.017 56.6555 114.751 58.5872 116.222C59.4223 116.97 60.0964 117.881 60.5682 118.898C61.0401 119.915 61.3 121.018 61.3319 122.139H55.2576C55.2599 121.737 55.1831 121.339 55.0316 120.967C54.88 120.595 54.6566 120.256 54.3741 119.97C54.0917 119.684 53.7557 119.457 53.3854 119.301C53.0151 119.145 52.6177 119.064 52.2159 119.061C52.09 119.052 51.9637 119.052 51.8379 119.061C51.2902 119.025 50.7426 119.133 50.2493 119.373C49.7561 119.614 49.3342 119.98 49.0257 120.434C48.3259 121.687 48.0128 123.12 48.1258 124.551C48.0202 125.971 48.3667 127.389 49.1157 128.6C49.4426 129.059 49.8801 129.427 50.3875 129.671C50.8949 129.915 51.4558 130.026 52.0179 129.995C52.8507 130.015 53.6581 129.708 54.2677 129.14C54.8889 128.489 55.2478 127.632 55.2756 126.733L55.37 126.76Z" fill="white"/>
<path fill-rule="evenodd" clip-rule="evenodd" d="M68.2162 134.436V119.858H62.5468V114.652H80.1895V119.858H74.61V134.436H68.2162Z" fill="white"/>
<path fill-rule="evenodd" clip-rule="evenodd" d="M95.1549 126.764H101.162C101.133 127.892 100.875 129.002 100.403 130.026C99.9312 131.05 99.2554 131.967 98.417 132.722C96.3235 134.227 93.7844 134.984 91.2084 134.87C88.6324 134.757 86.1696 133.78 84.2165 132.096C82.4634 129.941 81.5062 127.248 81.5062 124.47C81.5062 121.691 82.4634 118.998 84.2165 116.843C85.1829 115.893 86.3364 115.154 87.6037 114.674C88.871 114.193 90.2244 113.982 91.5778 114.053C94.0033 113.908 96.3998 114.643 98.3271 116.123C99.1692 116.867 99.8494 117.776 100.325 118.794C100.801 119.812 101.063 120.917 101.094 122.04H94.9974C94.9712 121.194 94.6237 120.389 94.0255 119.79C93.3615 119.231 92.5074 118.949 91.6408 119.003C91.0988 118.968 90.5572 119.074 90.0684 119.311C89.5796 119.547 89.1602 119.906 88.851 120.353C88.1356 121.601 87.8068 123.034 87.9061 124.47C87.8201 125.888 88.1652 127.3 88.896 128.519C89.2301 128.977 89.6728 129.344 90.1842 129.587C90.6956 129.831 91.2596 129.943 91.8252 129.914C92.657 129.928 93.4622 129.622 94.075 129.059C94.6957 128.408 95.0559 127.551 95.0874 126.652L95.1549 126.764Z" fill="white"/>
</svg>
