<svg width="30" height="30" viewBox="0 0 30 30" fill="none" xmlns="http://www.w3.org/2000/svg">
<g clip-path="url(#clip0_65_1671)">
<path d="M25.4985 22.4393C26.9658 20.3794 26.7867 17.5133 24.9394 15.666C22.9588 13.6854 19.4603 13.6846 17.4825 15.666C15.4204 17.7263 15.4214 21.0638 17.4825 23.123C19.33 24.972 22.1968 25.1484 24.2557 23.6821L28.7572 28.0788L30 26.8359L25.4985 22.4393Z" fill="#1A16BF"/>
<path d="M15.9375 0.514984V7.08985H22.4538L15.9375 0.514984Z" fill="#1A16BF"/>
<path d="M21.2101 26.4267C19.3321 26.4267 17.5665 25.6945 16.2387 24.365C13.4898 21.6196 13.4892 17.17 16.2404 14.4223C17.8081 12.8514 20.293 11.9981 22.9687 12.6635V8.84766H14.1797V0H0V30H22.9688V26.1776C22.3985 26.3246 21.8146 26.4267 21.2101 26.4267ZM3.51562 10.6055H15.9375V12.3633H3.51562V10.6055ZM12.4219 22.9102H3.51562V21.1523H12.4219V22.9102ZM12.4219 19.3945H3.51562V17.6367H12.4219V19.3945ZM12.4219 15.8789H3.51562V14.1211H12.4219V15.8789Z" fill="#1A16BF"/>
</g>
<defs>
<clipPath id="clip0_65_1671">
<rect width="30" height="30" fill="white"/>
</clipPath>
</defs>
</svg>
